<svg width="231" height="52" viewBox="0 0 231 52" fill="none" xmlns="http://www.w3.org/2000/svg">
<g clip-path="url(#clip0_404_20)">
<path d="M7.43234 0.111823C3.67042 0.238915 3.28914 0.315171 2.45033 0.874376C1.96738 1.20482 1.3065 1.89111 0.976065 2.37406C0.41686 3.16203 0.366024 3.59415 0.137258 8.34739C0.0101657 11.1688 -0.0406711 21.1329 0.0355841 30.5122C0.162676 49.2456 0.0864209 48.5339 1.76404 50.1607C2.22157 50.6182 3.06038 51.1266 3.645 51.3045C5.11927 51.7366 44.1111 51.7366 45.6108 51.2791C46.8563 50.9232 48.3814 49.449 48.8135 48.2035C49.2711 46.9071 49.2965 5.06841 48.8389 3.56873C48.661 2.9841 48.1526 2.1453 47.6951 1.68777C46.0683 0.0101497 46.78 0.086405 28.3009 0.0101497C19.074 -0.0152687 9.69458 0.0101497 7.43234 0.111823ZM29.9785 5.98348C31.4527 6.26308 37.6803 9.16078 37.5023 9.4658C37.4261 9.59289 36.1043 10.3046 34.5538 11.0672L31.7323 12.4398L27.9958 10.635C24.3864 8.88118 22.6071 8.27113 21.2091 8.27113C20.167 8.27113 20.4212 7.86444 21.8954 7.15272C24.5898 5.85639 27.1825 5.47511 29.9785 5.98348ZM26.7503 12.1347L30.7156 14.092V16.9897C30.7156 18.591 30.6648 19.9382 30.5885 20.0144C30.5123 20.0907 28.3009 19.0485 25.6828 17.7268C21.3362 15.5408 20.777 15.312 19.4807 15.312C16.8117 15.312 14.7274 16.888 14.3207 19.2265C14.1174 20.3195 14.8037 22.0733 15.7442 22.9121C16.0746 23.2172 19.3536 24.971 23.0392 26.8266C30.2835 30.4614 30.8935 30.9189 30.5885 32.5203C30.3598 33.8166 28.9109 34.9605 27.5383 34.9605C27.157 34.9605 23.6493 33.3337 19.7349 31.3256C11.6518 27.2333 10.3809 26.3182 9.13538 23.7001C7.83904 21.0058 7.83904 18.5148 9.10996 15.795C10.1267 13.6344 12.7448 11.4993 15.5917 10.4825C16.583 10.1267 17.498 10.0504 19.8111 10.1013L22.7596 10.1775L26.7503 12.1347ZM38.8495 14.2445V17.1676L35.7993 18.6927L32.7491 20.2178V17.1676V14.1428L35.3672 12.7702C36.7906 12.0076 38.1632 11.3722 38.4174 11.3468C38.7987 11.3213 38.8495 11.6264 38.8495 14.2445ZM27.4366 20.7516C33.4608 23.7764 34.7571 24.5389 35.9518 25.6827C39.0783 28.7584 39.7137 33.4099 37.4515 36.9685C36.6889 38.214 34.63 40.0442 33.232 40.7305C30.436 42.1285 26.3945 42.4335 23.7001 41.493C22.7596 41.1371 10.4571 35.0113 9.64374 34.4775C9.36414 34.2996 10.0504 33.8421 12.3127 32.7237L15.3375 31.1985L20.5737 33.8929C26.7503 37.0448 27.7162 37.2735 30.0039 36.1297C31.8594 35.2401 32.622 34.0454 32.622 32.139C32.622 29.7243 32.2153 29.3938 24.2339 25.3015C20.472 23.3697 17.193 21.5395 16.9388 21.2345C16.0238 20.1161 16.5067 18.2097 17.8793 17.4726C19.2011 16.7355 20.1161 17.0659 27.4366 20.7516ZM22.7088 43.1198C23.268 43.2977 24.4118 43.5773 25.2507 43.7298L26.7758 44.0094L25.5048 44.6703C22.5563 46.1954 18.9723 46.6021 16.0492 45.7633C15.2612 45.5345 13.1515 44.6195 11.3468 43.7044L8.09322 42.0776V39.2053C8.09322 37.604 8.16948 36.2314 8.27115 36.1551C8.34741 36.0535 11.423 37.5023 15.0579 39.3833C18.7181 41.2388 22.1496 42.9164 22.7088 43.1198Z" fill="#EA2D49"/>
<path d="M88.6442 13.7615C86.9158 14.2953 85.0857 15.6425 84.2214 17.0405C83.586 18.0826 83.4335 18.591 83.3826 20.1924C83.2301 23.9797 84.9331 25.8861 90.3219 27.8433C94.0838 29.2159 94.7447 29.5972 94.948 30.3597C95.5835 32.9016 91.1607 33.6133 86.8904 31.6306C85.1365 30.8173 85.1111 30.8173 84.5773 31.3002C83.7893 32.0119 83.3318 33.0287 83.3318 34.0962C83.3318 34.8334 83.5351 35.2146 84.2977 35.9772C85.6703 37.3244 87.7292 38.0361 90.8302 38.1886C95.1005 38.3919 98.4557 37.4006 100.286 35.3926C101.531 34.02 101.963 32.8253 101.989 30.8681C102.014 26.8011 99.93 24.7931 93.2958 22.48C90.576 21.5395 89.8897 20.9041 90.4489 19.8365C90.6269 19.4806 91.1861 19.0739 91.669 18.9214C93.0162 18.4893 96.4223 18.7689 97.9982 19.4552L99.32 20.0144L99.9554 19.3027C100.769 18.3368 100.972 17.1676 100.54 16.0746C99.7012 14.0919 97.6424 13.3548 93.0162 13.3802C91.0081 13.3802 89.3814 13.5327 88.6442 13.7615Z" fill="#EA2D49"/>
<path d="M57.837 13.7869C57.5829 14.0157 57.6337 25.8099 57.8879 29.2413C58.1421 32.5712 58.7521 34.0708 60.6076 35.6722C62.819 37.6294 66.7335 38.5953 70.3175 38.0869C73.5965 37.604 75.8079 36.3839 77.2821 34.2488C78.6293 32.2915 78.7564 31.3002 78.7564 22.7088V14.9308L77.9684 14.2699C77.2059 13.6344 77.0534 13.5836 74.7149 13.6599L72.2747 13.7361L72.1476 21.9971C71.9951 31.3765 71.9951 31.4527 69.9108 32.4441C67.9536 33.41 65.3863 32.4441 64.8271 30.5885C64.6746 30.131 64.4967 26.4199 64.4204 22.3784L64.2679 15.007L63.5053 14.2953C62.7682 13.6599 62.5903 13.609 60.3789 13.609C59.0571 13.609 57.9133 13.6853 57.837 13.7869Z" fill="#EA2D49"/>
<path d="M105.827 13.8378C104.734 14.2953 104.302 15.1087 104.353 16.6592C104.429 19.1502 104.48 19.2011 107.861 19.2011H110.784V24.0814C110.784 26.7758 110.86 30.6393 110.962 32.6474C111.114 35.9264 111.165 36.3585 111.699 36.9685C112.207 37.5532 112.487 37.6294 114.317 37.7057C115.461 37.7565 116.655 37.7311 117.011 37.6548L117.647 37.5023V28.3771V19.2773L120.494 19.1502C123.188 19.0486 123.34 18.9977 123.925 18.3368C124.586 17.5743 124.688 16.2017 124.23 14.5495L123.976 13.609L115.156 13.6344C110.301 13.6344 106.107 13.7361 105.827 13.8378Z" fill="#EA2D49"/>
<path d="M134.194 14.0665C133.152 14.4732 132.999 14.6511 132.465 16.0237C131.144 19.379 127.077 31.9103 126.645 33.8675C126.238 35.8501 126.238 35.9772 126.645 36.6127C127.229 37.5277 128.526 38.0107 130.152 37.9853C132.643 37.9344 132.669 37.909 133.355 35.1384L133.965 32.6474L137.676 32.7236L141.362 32.7999L141.845 34.5792C142.175 35.7738 142.582 36.6127 143.065 37.121C143.726 37.7819 144.031 37.8836 145.531 37.9598C147.437 38.0361 148.962 37.5023 149.114 36.6889C149.216 36.2314 145.505 23.0392 143.929 18.1843C142.658 14.219 141.794 13.609 137.625 13.6344C136.1 13.6344 134.931 13.7869 134.194 14.0665ZM139.201 23.5222C139.735 25.5556 140.142 27.2841 140.091 27.3858C139.938 27.6908 135.49 27.6145 135.312 27.3349C135.185 27.1062 137.244 20.3703 137.651 19.6332C137.93 19.1756 138.235 19.9636 139.201 23.5222Z" fill="#EA2D49"/>
<path d="M152.927 13.7615C152.673 13.9903 152.673 27.1316 152.902 32.4186C153.054 35.9264 153.105 36.3585 153.639 36.9685C154.147 37.5532 154.427 37.6294 156.257 37.7057C157.401 37.7565 158.621 37.7311 158.977 37.6548L159.612 37.4769L159.536 26.1911L159.46 14.9053L158.875 14.3207C158.367 13.8124 158.011 13.7361 155.698 13.6598C154.275 13.609 153.029 13.6598 152.927 13.7615Z" fill="#EA2D49"/>
<path d="M166.704 13.8886C165.103 14.5241 165.179 13.8886 165.179 25.7082V36.4347L165.967 37.0956C166.653 37.6802 166.958 37.7565 168.865 37.7565C170.39 37.7565 171.051 37.6548 171.279 37.3752C171.508 37.121 171.559 35.1892 171.483 29.8768C171.432 25.9623 171.457 22.7596 171.534 22.7596C171.635 22.7596 172.245 23.9797 172.932 25.4794C174.762 29.5209 177.812 35.5451 178.422 36.3331C179.337 37.4769 180.354 37.8582 182.591 37.8327C183.836 37.8073 185.005 37.6548 185.59 37.426L186.531 37.0194V25.9623V14.9308L185.743 14.2699C185.056 13.6853 184.751 13.609 182.845 13.609C181.32 13.609 180.659 13.7107 180.43 13.9903C180.201 14.2699 180.15 16.1763 180.227 21.6158C180.252 25.6065 180.252 28.86 180.176 28.86C180.1 28.86 179.668 27.9196 179.185 26.7503C177.965 23.8272 173.974 15.9221 173.288 15.0324C172.982 14.6257 172.347 14.1428 171.89 13.9649C170.924 13.5582 167.645 13.5073 166.704 13.8886Z" fill="#EA2D49"/>
<path d="M194.029 14.1174C193.749 14.2191 193.241 14.6258 192.885 14.9816C192.326 15.6171 192.25 15.9221 192.046 19.6586C191.919 21.8446 191.868 26.1911 191.945 29.2922C192.122 38.0615 191.792 37.7565 201.451 37.7565H208.085L208.772 36.9431C209.382 36.206 209.458 35.9772 209.356 34.6555C209.305 33.8421 209.102 33.0287 208.949 32.8762C208.721 32.6474 207.068 32.5203 203.535 32.4695L198.452 32.3678L198.528 30.2835L198.604 28.2246L202.874 28.0975C206.992 27.9704 207.196 27.945 207.653 27.3604C208.161 26.7503 208.263 25.0727 207.907 23.7764L207.729 23.1409L203.179 23.0138L198.604 22.8867L198.528 21.0566L198.452 19.2519L203.154 19.1502L207.882 19.074L208.568 18.3877C209.127 17.8031 209.254 17.4726 209.229 16.4813C209.204 15.8204 209.077 14.9562 208.924 14.5495L208.644 13.8632L201.604 13.8886C197.714 13.8886 194.308 13.9903 194.029 14.1174Z" fill="#EA2D49"/>
<path d="M215.635 14.1174C215.355 14.2191 214.847 14.6258 214.491 14.9816C213.932 15.6171 213.855 15.9221 213.652 19.6586C213.525 21.8446 213.474 26.1911 213.55 29.2922C213.728 38.0615 213.398 37.7565 223.057 37.7565H229.691L230.377 36.9431C230.987 36.206 231.064 35.9772 230.962 34.6555C230.911 33.8421 230.708 33.0287 230.555 32.8762C230.326 32.6474 228.674 32.5203 225.141 32.4695L220.057 32.3678L220.134 30.2835L220.21 28.2246L224.48 28.0975C228.598 27.9704 228.801 27.945 229.259 27.3604C229.767 26.7503 229.869 25.0727 229.513 23.7764L229.335 23.1409L224.785 23.0138L220.21 22.8867L220.134 21.0566L220.057 19.2519L224.76 19.1502L229.488 19.074L230.174 18.3877C230.733 17.8031 230.86 17.4726 230.835 16.4813C230.809 15.8204 230.682 14.9562 230.53 14.5495L230.25 13.8632L223.209 13.8886C219.32 13.8886 215.914 13.9903 215.635 14.1174Z" fill="#EA2D49"/>
</g>
<defs>
<clipPath id="clip0_404_20">
<rect width="231" height="51.6248" fill="white"/>
</clipPath>
</defs>
</svg>
