<svg width="" height="" viewBox="0 0 21 21" fill="none" xmlns="http://www.w3.org/2000/svg">
<path d="M9.52031 13.5393C9.41641 13.4354 9.2791 13.3686 9.1084 13.3686C8.9377 13.3686 8.80039 13.4391 8.69649 13.5393C8.59258 13.6432 8.52578 13.7805 8.52578 13.9512C8.52578 14.1219 8.59629 14.2592 8.69649 14.3631L10.4146 16.0479H6.67031C5.81309 16.0479 5.26016 15.7398 4.91875 15.0533C4.57363 14.3334 4.50684 13.3018 4.50684 12.5781V6.87441C5.12656 6.77051 5.70918 6.4291 6.15449 5.94668C6.63691 5.39746 6.91152 4.71094 6.91152 3.95391C6.90781 2.33965 5.56816 1 3.95391 1C2.33965 1 1 2.33965 1 3.95391C1 4.67383 1.27461 5.36406 1.71992 5.91328C2.13184 6.3957 2.68105 6.70371 3.30078 6.84102V12.5447C3.30078 13.1645 3.30078 14.3297 3.7127 15.2945C4.22852 16.5303 5.22305 17.1834 6.6332 17.1834H10.4109L8.72617 18.8682C8.48496 19.1094 8.48496 19.4879 8.72617 19.692C8.83008 19.7959 9.00078 19.8627 9.13809 19.8627C9.30879 19.8627 9.44609 19.7922 9.55 19.692L11.9881 17.2873C12.1588 17.1166 12.2627 16.8754 12.2627 16.6342C12.2627 16.393 12.1588 16.1518 11.9881 15.9811L9.52031 13.5393ZM3.95391 5.77598C2.99277 5.77598 2.16895 4.98555 2.16895 3.99102C2.16895 2.99648 2.95938 2.20234 3.95391 2.20234C4.94844 2.20234 5.73887 2.99277 5.73887 3.9873C5.73887 4.98184 4.91504 5.77598 3.95391 5.77598ZM17.5619 14.0922V8.38848C17.5619 7.76875 17.5619 6.60352 17.15 5.63867C16.6342 4.40293 15.6396 3.7498 14.2295 3.7498H10.448L12.1328 2.06504C12.374 1.82383 12.374 1.44531 12.1328 1.24121C12.0289 1.1373 11.8582 1.07051 11.7209 1.07051C11.5502 1.07051 11.4129 1.14102 11.309 1.24121L8.8709 3.6459C8.7002 3.8166 8.59629 4.05781 8.59629 4.29902C8.59629 4.54023 8.7002 4.78145 8.8709 4.95215L11.3795 7.46074C11.4834 7.56465 11.6207 7.63145 11.7914 7.63145C11.9621 7.63145 12.0994 7.56094 12.2033 7.46074C12.3072 7.35684 12.374 7.21953 12.374 7.04883C12.374 6.87813 12.3035 6.74082 12.2033 6.63691L10.448 4.95215H14.2258C15.083 4.95215 15.6359 5.26016 15.9773 5.94668C16.3225 6.6666 16.3893 7.69824 16.3893 8.42188V14.1256C15.7695 14.2295 15.1869 14.5709 14.7416 15.0533C14.2592 15.6025 13.9846 16.2891 13.9846 17.0461C13.9846 18.6604 15.3242 20 16.9385 20C18.5527 20 19.8924 18.6604 19.8924 17.0461C19.8924 16.3262 19.6178 15.6359 19.1725 15.0867C18.7643 14.5709 18.1779 14.2295 17.5619 14.0922ZM16.9422 18.7643C15.9811 18.7643 15.1572 17.9738 15.1572 16.9793C15.1572 15.9848 15.9477 15.1943 16.9422 15.1943C17.9367 15.1943 18.7272 15.9848 18.7272 16.9793C18.7272 17.9738 17.9367 18.7643 16.9422 18.7643Z" fill="#868686" stroke="#868686"/>
</svg>
