<svg width="17" height="17" viewBox="0 0 17 17" fill="none" xmlns="http://www.w3.org/2000/svg">
<g clip-path="url(#clip0_431_69)">
<path d="M7.66983 11.2193C7.57686 11.1264 7.454 11.0666 7.30127 11.0666C7.14854 11.0666 7.02568 11.1297 6.93272 11.2193C6.83975 11.3123 6.77998 11.4352 6.77998 11.5879C6.77998 11.7406 6.84307 11.8635 6.93272 11.9564L8.47002 13.4639H5.11982C4.35283 13.4639 3.85811 13.1883 3.55264 12.574C3.24385 11.9299 3.18408 11.0068 3.18408 10.3594V5.25605C3.73857 5.16309 4.25986 4.85762 4.6583 4.42598C5.08994 3.93457 5.33565 3.32031 5.33565 2.64297C5.33232 1.19863 4.13369 0 2.68936 0C1.24502 0 0.0463867 1.19863 0.0463867 2.64297C0.0463867 3.28711 0.29209 3.90469 0.690527 4.39609C1.05908 4.82773 1.55049 5.10332 2.10498 5.22617V10.3295C2.10498 10.884 2.10498 11.9266 2.47354 12.7898C2.93506 13.8955 3.8249 14.4799 5.08662 14.4799H8.4667L6.95928 15.9873C6.74346 16.2031 6.74346 16.5418 6.95928 16.7244C7.05225 16.8174 7.20498 16.8771 7.32783 16.8771C7.48057 16.8771 7.60342 16.8141 7.69639 16.7244L9.87783 14.5729C10.0306 14.4201 10.1235 14.2043 10.1235 13.9885C10.1235 13.7727 10.0306 13.5568 9.87783 13.4041L7.66983 11.2193ZM2.68936 4.27324C1.82939 4.27324 1.09229 3.56602 1.09229 2.67617C1.09229 1.78633 1.79951 1.07578 2.68936 1.07578C3.5792 1.07578 4.28643 1.78301 4.28643 2.67285C4.28643 3.5627 3.54932 4.27324 2.68936 4.27324ZM14.8649 11.7141V6.61074C14.8649 6.05625 14.8649 5.01367 14.4964 4.15039C14.0349 3.04473 13.145 2.46035 11.8833 2.46035H8.4999L10.0073 0.95293C10.2231 0.737109 10.2231 0.398438 10.0073 0.21582C9.91436 0.122852 9.76162 0.0630859 9.63877 0.0630859C9.48604 0.0630859 9.36319 0.126172 9.27022 0.21582L7.08877 2.36738C6.93604 2.52012 6.84307 2.73594 6.84307 2.95176C6.84307 3.16758 6.93604 3.3834 7.08877 3.53613L9.3333 5.78066C9.42627 5.87363 9.54912 5.9334 9.70186 5.9334C9.85459 5.9334 9.97744 5.87031 10.0704 5.78066C10.1634 5.6877 10.2231 5.56484 10.2231 5.41211C10.2231 5.25938 10.1601 5.13652 10.0704 5.04355L8.4999 3.53613H11.88C12.647 3.53613 13.1417 3.81172 13.4472 4.42598C13.756 5.07012 13.8157 5.99316 13.8157 6.64062V11.7439C13.2612 11.8369 12.7399 12.1424 12.3415 12.574C11.9099 13.0654 11.6642 13.6797 11.6642 14.357C11.6642 15.8014 12.8628 17 14.3071 17C15.7515 17 16.9501 15.8014 16.9501 14.357C16.9501 13.7129 16.7044 13.0953 16.306 12.6039C15.9407 12.1424 15.4161 11.8369 14.8649 11.7141ZM14.3105 15.8943C13.4505 15.8943 12.7134 15.1871 12.7134 14.2973C12.7134 13.4074 13.4206 12.7002 14.3105 12.7002C15.2003 12.7002 15.9075 13.4074 15.9075 14.2973C15.9075 15.1871 15.2003 15.8943 14.3105 15.8943Z" fill="#868686" stroke="#868686"/>
</g>
<defs>
<clipPath id="clip0_431_69">
<rect width="17" height="17" fill="white"/>
</clipPath>
</defs>
</svg>
