<svg width="26" height="26" viewBox="0 0 26 26" fill="none" xmlns="http://www.w3.org/2000/svg">
<path d="M3.9001 3.90002C4.24488 3.90002 4.57554 4.03699 4.81934 4.28079C5.06313 4.52458 5.2001 4.85524 5.2001 5.20002V20.8C5.2001 21.1448 5.06313 21.4755 4.81934 21.7193C4.57554 21.9631 4.24488 22.1 3.9001 22.1C3.55532 22.1 3.22466 21.9631 2.98086 21.7193C2.73706 21.4755 2.6001 21.1448 2.6001 20.8V5.20002C2.6001 4.85524 2.73706 4.52458 2.98086 4.28079C3.22466 4.03699 3.55532 3.90002 3.9001 3.90002V3.90002ZM13.9192 8.18092C14.1629 8.42471 14.2998 8.75531 14.2998 9.10002C14.2998 9.44474 14.1629 9.77534 13.9192 10.0191L12.2383 11.7H22.1001C22.4449 11.7 22.7755 11.837 23.0193 12.0808C23.2631 12.3246 23.4001 12.6552 23.4001 13C23.4001 13.3448 23.2631 13.6755 23.0193 13.9193C22.7755 14.1631 22.4449 14.3 22.1001 14.3H12.2383L13.9192 15.9809C14.156 16.2261 14.287 16.5545 14.2841 16.8953C14.2811 17.2362 14.1444 17.5623 13.9034 17.8033C13.6623 18.0443 13.3363 18.181 12.9954 18.184C12.6546 18.187 12.3262 18.0559 12.081 17.8191L8.181 13.9191C7.93729 13.6753 7.80038 13.3447 7.80038 13C7.80038 12.6553 7.93729 12.3247 8.181 12.0809L12.081 8.18092C12.3248 7.93721 12.6554 7.8003 13.0001 7.8003C13.3448 7.8003 13.6754 7.93721 13.9192 8.18092V8.18092Z" fill="black"/>
</svg>
