<svg width="26" height="26" viewBox="0 0 26 26" fill="none" xmlns="http://www.w3.org/2000/svg">
<path d="M6.4999 3.90002C5.81034 3.90002 5.14902 4.17395 4.66142 4.66155C4.17383 5.14914 3.8999 5.81046 3.8999 6.50002V9.10003C3.8999 9.78959 4.17383 10.4509 4.66142 10.9385C5.14902 11.4261 5.81034 11.7 6.4999 11.7H9.0999C9.78947 11.7 10.4508 11.4261 10.9384 10.9385C11.426 10.4509 11.6999 9.78959 11.6999 9.10003V6.50002C11.6999 5.81046 11.426 5.14914 10.9384 4.66155C10.4508 4.17395 9.78947 3.90002 9.0999 3.90002H6.4999ZM6.4999 14.3C5.81034 14.3 5.14902 14.574 4.66142 15.0615C4.17383 15.5491 3.8999 16.2105 3.8999 16.9V19.5C3.8999 20.1896 4.17383 20.8509 4.66142 21.3385C5.14902 21.8261 5.81034 22.1 6.4999 22.1H9.0999C9.78947 22.1 10.4508 21.8261 10.9384 21.3385C11.426 20.8509 11.6999 20.1896 11.6999 19.5V16.9C11.6999 16.2105 11.426 15.5491 10.9384 15.0615C10.4508 14.574 9.78947 14.3 9.0999 14.3H6.4999ZM14.2999 6.50002C14.2999 5.81046 14.5738 5.14914 15.0614 4.66155C15.549 4.17395 16.2103 3.90002 16.8999 3.90002H19.4999C20.1895 3.90002 20.8508 4.17395 21.3384 4.66155C21.826 5.14914 22.0999 5.81046 22.0999 6.50002V9.10003C22.0999 9.78959 21.826 10.4509 21.3384 10.9385C20.8508 11.4261 20.1895 11.7 19.4999 11.7H16.8999C16.2103 11.7 15.549 11.4261 15.0614 10.9385C14.5738 10.4509 14.2999 9.78959 14.2999 9.10003V6.50002ZM18.1999 14.3C18.5447 14.3 18.8753 14.437 19.1191 14.6808C19.3629 14.9246 19.4999 15.2552 19.4999 15.6V16.9H20.7999C21.1447 16.9 21.4753 17.037 21.7191 17.2808C21.9629 17.5246 22.0999 17.8552 22.0999 18.2C22.0999 18.5448 21.9629 18.8755 21.7191 19.1193C21.4753 19.3631 21.1447 19.5 20.7999 19.5H19.4999V20.8C19.4999 21.1448 19.3629 21.4755 19.1191 21.7193C18.8753 21.9631 18.5447 22.1 18.1999 22.1C17.8551 22.1 17.5245 21.9631 17.2807 21.7193C17.0369 21.4755 16.8999 21.1448 16.8999 20.8V19.5H15.5999C15.2551 19.5 14.9245 19.3631 14.6807 19.1193C14.4369 18.8755 14.2999 18.5448 14.2999 18.2C14.2999 17.8552 14.4369 17.5246 14.6807 17.2808C14.9245 17.037 15.2551 16.9 15.5999 16.9H16.8999V15.6C16.8999 15.2552 17.0369 14.9246 17.2807 14.6808C17.5245 14.437 17.8551 14.3 18.1999 14.3V14.3Z" fill="black"/>
</svg>
