<?xml version="1.0" encoding="UTF-8"?>
<svg width="752pt" height="752pt" version="1.1" viewBox="0 0 752 752" xmlns="http://www.w3.org/2000/svg">
 <path d="m482.56 364.4c-3.3164-3.3164-7.2617-4.9727-11.84-4.9727h-236.79c-4.5781 0-8.4453 1.6562-11.602 4.9727-3.3164 3.1562-4.9727 7.0234-4.9727 11.602s1.6562 8.5273 4.9727 11.84c3.1562 3.1602 7.0234 4.7383 11.602 4.7383h236.79c4.5781 0 8.5234-1.5781 11.84-4.7383 3.1562-3.3125 4.7344-7.2617 4.7344-11.84s-1.5781-8.4453-4.7344-11.602m47.355 118.16c3.1602-3.3164 4.7383-7.2617 4.7383-11.84s-1.5781-8.4453-4.7383-11.605c-3.3125-3.3125-7.2617-4.9727-11.84-4.9727h-284.15c-4.5781 0-8.4453 1.6602-11.602 4.9727-3.3164 3.1602-4.9727 7.0273-4.9727 11.605s1.6562 8.5234 4.9727 11.84c3.1562 3.1562 7.0234 4.7344 11.602 4.7344h284.15c4.5781 0 8.5273-1.5781 11.84-4.7344m0-189.43c3.1602-3.3164 4.7383-7.2617 4.7383-11.84s-1.5781-8.4453-4.7383-11.602c-3.3125-3.3164-7.2617-4.9727-11.84-4.9727h-284.15c-4.5781 0-8.4453 1.6562-11.602 4.9727-3.3164 3.1562-4.9727 7.0234-4.9727 11.602s1.6562 8.5234 4.9727 11.84c3.1562 3.1562 7.0234 4.7344 11.602 4.7344h284.15c4.5781 0 8.5273-1.5781 11.84-4.7344z"/>
</svg>
