<?xml version="1.0" standalone="no"?>
<!DOCTYPE svg PUBLIC "-//W3C//DTD SVG 20010904//EN"
 "http://www.w3.org/TR/2001/REC-SVG-20010904/DTD/svg10.dtd">
<svg version="1.0" xmlns="http://www.w3.org/2000/svg"
 width="292.000000pt" height="412.000000pt" viewBox="0 0 292.000000 412.000000"
 preserveAspectRatio="xMidYMid meet">

<g transform="translate(0.000000,412.000000) scale(0.100000,-0.100000)"
fill="#EA2D49" stroke="none">
<path d="M0 2060 l0 -2060 1460 0 1460 0 0 2060 0 2060 -1460 0 -1460 0 0
-2060z m1950 1359 c77 -31 294 -148 345 -185 17 -12 17 -16 5 -28 -14 -13
-327 -196 -336 -196 -2 0 -94 51 -203 114 -200 113 -286 149 -424 176 -66 13
-67 11 34 68 127 72 213 92 369 88 115 -2 132 -5 210 -37z m-593 -255 c41 -8
99 -26 128 -39 64 -28 314 -172 373 -214 l42 -31 0 -195 c0 -130 -4 -195 -10
-195 -16 0 -51 19 -294 158 -241 137 -299 162 -379 162 -114 0 -220 -69 -274
-178 -50 -102 -30 -246 45 -325 48 -51 112 -92 428 -274 347 -201 423 -250
452 -291 45 -63 37 -143 -21 -209 -60 -68 -138 -81 -222 -37 -63 34 -499 282
-670 383 -203 119 -309 236 -373 413 -24 66 -27 86 -27 213 0 127 3 147 27
213 39 108 84 177 169 262 161 162 385 230 606 184z m1033 -267 c0 -139 -4
-198 -12 -210 -11 -14 -331 -207 -343 -207 -3 0 -5 94 -5 208 l0 208 103 59
c128 74 240 134 250 135 4 0 7 -87 7 -193z m-1005 -278 c428 -238 748 -436
817 -506 113 -115 176 -262 185 -433 10 -197 -52 -355 -196 -501 -70 -70 -102
-94 -171 -127 -113 -56 -183 -72 -305 -72 -183 0 -227 19 -730 310 -321 187
-364 214 -354 225 14 13 335 195 345 195 7 0 48 -21 91 -47 253 -150 558 -313
599 -319 97 -14 211 23 270 88 59 66 84 130 84 221 0 147 -57 216 -286 346
-240 136 -586 341 -622 367 -44 34 -62 73 -62 139 0 111 63 173 175 174 44 1
65 -7 160 -60z m-653 -1332 c90 -52 255 -147 368 -212 236 -136 324 -179 412
-201 132 -33 139 -35 132 -46 -10 -16 -189 -98 -248 -114 -73 -20 -288 -18
-357 2 -67 20 -152 63 -341 171 l-148 85 0 204 c0 126 4 204 10 204 5 0 83
-42 172 -93z"/>
</g>
</svg>
