<svg width="38" height="38" viewBox="0 0 38 38" fill="none" xmlns="http://www.w3.org/2000/svg">
<g clip-path="url(#clip0_400_2)">
<path d="M0 19V38H19H38V19V-2.68966e-06H19H0V19ZM22.458 6.83058C22.7924 6.91694 23.3548 7.13677 23.712 7.3252C24.7988 7.88264 26.2124 8.74628 26.22 8.84835C26.22 8.9033 26.144 8.98182 26.0528 9.03677C25.954 9.08388 25.2852 9.47644 24.5632 9.90826L23.2484 10.7012L21.7512 9.8062C20.9304 9.31942 20.102 8.84049 19.912 8.74628C19.3724 8.48719 18.582 8.23595 17.9512 8.13388L17.3736 8.03967L17.8828 7.70992C19.3648 6.74421 20.938 6.44587 22.458 6.83058ZM18.3008 9.35082C19.1064 9.57066 19.3192 9.68058 21.09 10.7326C22.1236 11.345 22.6556 11.714 22.6784 11.8161C22.7544 12.0988 22.724 15.2236 22.648 15.2707C22.5796 15.3178 22.23 15.1215 19.5472 13.5198C17.898 12.5384 17.4724 12.3657 16.7276 12.4207C16.0132 12.4756 15.504 12.7269 15.0176 13.2764C14.3488 14.0223 14.1436 14.9409 14.4324 15.9302C14.5692 16.3934 14.668 16.5661 15.0328 16.9587C15.4128 17.3669 15.8764 17.6653 18.734 19.3533C22.1844 21.3946 22.458 21.5988 22.6404 22.219C22.9824 23.3888 21.7132 24.6136 20.6416 24.1504C20.4212 24.0562 16.1576 21.5359 14.2196 20.3583C12.844 19.5182 11.9396 18.4033 11.4684 16.9587C10.5488 14.1087 11.8636 11.0231 14.5616 9.71983C15.6864 9.1781 17.1456 9.02892 18.3008 9.35082ZM26.904 11.6905C26.904 12.9388 26.8812 13.4256 26.8128 13.5198C26.7292 13.6298 26.0756 14.0302 24.1072 15.2L23.788 15.3963L23.8032 13.5277L23.826 11.6669L25.308 10.7876C26.1212 10.3008 26.8128 9.92396 26.8432 9.93967C26.8812 9.96322 26.904 10.7483 26.904 11.6905ZM17.7232 13.7632C18.9772 14.4384 24.4036 17.7438 24.7988 18.0736C26.2352 19.2591 27.018 21.1512 26.866 23.0826C26.8052 23.9384 26.714 24.3231 26.41 25.0219C25.1484 27.8798 22.078 29.2616 19.2508 28.2488C18.9544 28.1388 18.24 27.7698 17.6548 27.4244C11.704 23.8835 11.7724 23.9227 11.8636 23.8442C11.8788 23.8207 12.5552 23.4124 13.3608 22.9256C14.7136 22.1091 14.8504 22.0384 14.9948 22.1405C15.9372 22.745 19.9652 25.0847 20.292 25.2103C20.6188 25.3438 20.8316 25.3674 21.28 25.3438C22.3136 25.281 23.0204 24.8021 23.4992 23.8442C23.7196 23.4045 23.7424 23.2868 23.75 22.6508C23.75 22.0463 23.7196 21.8814 23.5448 21.4967C23.294 20.9393 22.8304 20.4603 22.192 20.0913C20.7632 19.2826 16.188 16.519 15.9676 16.3384C15.5876 16.0322 15.428 15.6711 15.428 15.1136C15.428 14.3678 15.77 13.8731 16.4616 13.6219C16.9252 13.4492 17.1988 13.4806 17.7232 13.7632ZM12.0612 25.4066C12.4716 25.65 13.8852 26.4979 15.2 27.2831C18.4604 29.2302 18.658 29.3244 19.9424 29.5992C20.2768 29.662 20.558 29.7562 20.5732 29.8033C20.5884 29.8426 20.4896 29.9368 20.3528 29.9996C20.216 30.0702 19.836 30.2665 19.5092 30.4393C18.6428 30.9103 18.012 31.0517 16.872 31.0438C15.4888 31.0359 15.048 30.8789 12.9124 29.6149L11.21 28.6021L11.1872 26.7806C11.1796 25.6343 11.1948 24.9669 11.2404 24.9669C11.286 24.9669 11.6508 25.1632 12.0612 25.4066Z" fill="#EA2D49"/>
</g>
<defs>
<clipPath id="clip0_400_2">
<rect width="38" height="38" rx="19" fill="white"/>
</clipPath>
</defs>
</svg>
